<?xml version="1.0" encoding="UTF-8"?>
<svg id="Camada_2" data-name="Camada 2" xmlns="http://www.w3.org/2000/svg" viewBox="0 0 1825.58 1590.29">
  <defs>
    <style>
      .cls-1 {
        fill: none;
        stroke: #f7f7f7;
        stroke-miterlimit: 10;
        stroke-width: 1.1px;
      }
    </style>
  </defs>
  <g id="Camada_7" data-name="Camada 7">
    <path class="cls-1" d="M483.81,325.54c0-36.07,29.25-65,65-65s65,29.25,65,65-29.25,65-65,65-65-29.25-65-65ZM509.81,997.94c0-.98,0-2.27-.32-3.25-26.32-10.07-47.77-29.9-59.8-54.92H58.72c-32.17,0-58.17,26-58.17,58.17v468.96c0,32.17,26,58.17,58.17,58.17h380.24c0-47.12,29.57-87.1,70.85-102.7v-424.43ZM58.72,852.02h387.71c11.37-28.92,34.45-52,63.7-63.05v-360.74c-41.6-15.6-70.85-55.9-70.85-102.7H59.05c-32.17,0-58.17,26-58.17,58.17v410.14c-.32,32.17,25.67,58.17,57.85,58.17ZM594.3,791.57c27.95,12.67,49.4,36.72,59.15,65.97.98,2.92,3.9,4.87,6.82,4.87h293.46c2.6,0,5.2-1.62,6.5-4.23,17.87-36.4,55.25-61.75,98.8-61.75,23.72,0,45.82,7.47,63.7,20.47,2.27,1.62,5.2,1.62,7.8.32l515.76-294.76c2.27-1.3,3.57-3.9,3.57-6.5v-3.25c0-60.77,49.4-109.85,109.85-109.85,11.05,0,21.77,1.62,31.52,4.55,4.55,1.3,9.1-2.27,9.1-6.82h0v-20.8c0-30.22-24.37-54.6-54.6-54.6h-682.8c-2.92,0-5.85,1.95-6.82,4.87l-53.62,148.84c-16.9,46.47-82.55,46.47-99.45,0l-53.62-148.84c-.98-2.92-3.9-4.87-6.82-4.87h-177.44c-3.9,0-6.82,2.92-7.15,6.82-2.6,41.6-28.27,77.02-64.35,93.6-2.6,1.3-4.23,3.57-4.23,6.5v352.94c.65,2.6,2.28,5.2,4.88,6.5ZM994.04,906.62c0,36.07,29.25,65,65,65s65-29.25,65-65-29.25-65-65-65-65,29.25-65,65ZM483.81,891.67c0,36.07,29.25,65,65,65s65-29.25,65-65-29.25-65-65-65-65,29.25-65,65ZM1673.91,581.3l-507.96,299.31c1.95,8.45,3.25,17.22,3.25,26.32,0,40.62-22.1,76.37-55.25,95.22l184.59,396.16c51.35,9.1,90.35,54.27,90.35,108.22,0,6.17-.65,12.02-1.62,17.87,2.6.33,4.87.65,7.47.65h344.49c32.5,0,58.82-26.32,58.82-58.82v-850.17c-12.02,4.55-25.02,6.82-38.35,6.82-34.45,0-65.65-16.25-85.8-41.6ZM1760.04,447.73c-36.07,0-65,29.25-65,65s29.25,65,65,65,65-29.25,65-65-28.92-65-65-65ZM1279.05,1441.55c-36.07,0-65,29.25-65,65s29.25,65,65,65,65-29.25,65-65-28.92-65-65-65ZM548.81,1459.75c-36.07,0-65,29.25-65,65s29.25,65,65,65,65-29.25,65-65-28.92-65-65-65ZM1216.33,1416.2l-173.87-400.71c-44.85-6.82-80.92-40.95-90.67-84.82h-299.96c-10.72,28.6-33.47,51.67-61.75,63.05v428.98c40.3,16.25,68.9,55.9,68.9,102.05h511.86c-.98-5.85-1.62-12.02-1.62-18.52,0-37.05,18.52-70.2,47.12-90.02Z"/>
    <path class="cls-1" d="M954.39.55c-81.25,0-146.89,65.65-146.89,146.89,0,13.97,1.95,27.3,5.52,40.3,2.27,7.8,4.55,15.6,8.45,22.75,20.15,37.05,73.45,120.9,105.95,171.92,12.67,19.5,40.95,19.5,53.62,0,32.5-51.02,85.8-134.55,105.95-171.92,3.9-7.15,6.17-14.95,8.45-22.75,3.57-12.67,5.52-26.32,5.52-40.3.33-80.92-65.32-146.89-146.57-146.89ZM954.39,212.44c-20.47,0-38.67-9.42-50.7-24.37-9.42-11.7-14.62-26.97-13.97-43.55,1.62-32.82,28.27-59.47,60.77-61.42,37.37-1.95,68.57,27.62,68.57,64.67,0,15.27-5.2,29.25-13.97,40.3-12.02,14.62-30.22,24.37-50.7,24.37Z"/>
  </g>
</svg>